<svg xmlns="http://www.w3.org/2000/svg" viewBox="0 0 85.48 20"><defs><style>.cls-1,.cls-5{fill:#c31b00;}.cls-2{fill:#fff;}.cls-3,.cls-7{fill:#ff6936;}.cls-4{fill:#ff934d;}.cls-5{font-size:12px;letter-spacing:-0.03em;}.cls-5,.cls-7{font-family:MyriadPro-Regular, Myriad Pro;}.cls-6{letter-spacing:0em;}.cls-7{font-size:3.62px;}.cls-8{letter-spacing:-0.07em;}.cls-9{letter-spacing:0.02em;}.cls-10{letter-spacing:0.01em;}</style></defs><g id="Layer_2" data-name="Layer 2"><g id="Layer_1-2" data-name="Layer 1"><polygon class="cls-1" points="4.45 18.58 9.01 8.19 25.17 7.3 20.57 19.31 4.45 18.58"/><path class="cls-2" d="M24.18,8,20.12,18.62,5.45,18l4-9.13L24.18,8m2-1.45-17.6,1L3.44,19.2,21,20,26.16,6.58Z"/><polygon class="cls-3" points="2.75 15.48 7.19 5.03 23.34 3.96 18.88 16.02 2.75 15.48"/><path class="cls-2" d="M22.36,4.69,18.42,15.34,3.75,14.85l3.9-9.18,14.71-1m2-1.47L6.74,4.4l-5,11.72,17.58.58,5-13.48Z"/><polygon class="cls-4" points="0.99 12.26 5.43 1.81 21.58 0.73 17.12 12.8 0.99 12.26"/><path class="cls-2" d="M20.6,1.47,16.66,12.11,2,11.62l3.9-9.17,14.71-1m2-1.47L5,1.17,0,12.89l17.58.59L22.56,0Z"/><text class="cls-5" transform="translate(30.86 11.14)">W<tspan class="cls-6" x="9.76" y="0">ebadmin</tspan></text><text class="cls-7" transform="translate(31.43 16.7)"><tspan class="cls-8">T</tspan><tspan x="1.54" y="0">ecxha </tspan><tspan class="cls-9" x="11.19" y="0">I</tspan><tspan x="12.11" y="0">t </tspan><tspan class="cls-10" x="14.08" y="0">S</tspan><tspan x="15.88" y="0">olutions</tspan></text></g></g></svg>