<svg xmlns="http://www.w3.org/2000/svg" viewBox="0 0 99 30"><defs><style>.cls-1{fill:#fff;}.cls-2,.cls-5{fill:#c31b00;}.cls-3,.cls-7{fill:#ff6936;}.cls-4{fill:#ff934d;}.cls-5{font-size:12px;letter-spacing:-0.03em;}.cls-5,.cls-7{font-family:MyriadPro-Regular, Myriad Pro;}.cls-6{letter-spacing:0em;}.cls-7{font-size:3.62px;}.cls-8{letter-spacing:-0.07em;}.cls-9{letter-spacing:0.02em;}.cls-10{letter-spacing:0.01em;}</style></defs><g id="Layer_2" data-name="Layer 2"><g id="Layer_1-2" data-name="Layer 1"><rect class="cls-1" width="99" height="30"/><polygon class="cls-2" points="10.45 24.58 15.01 14.19 31.17 13.3 26.57 25.31 10.45 24.58"/><path class="cls-1" d="M30.18,14,26.12,24.62,11.45,24l4-9.13L30.18,14m2-1.45-17.6,1L9.44,25.2,27,26l5.14-13.42Z"/><polygon class="cls-3" points="8.75 21.48 13.19 11.03 29.34 9.96 24.88 22.02 8.75 21.48"/><path class="cls-1" d="M28.36,10.69,24.42,21.34,9.75,20.85l3.9-9.18,14.71-1m2-1.47L12.74,10.4l-5,11.72,17.58.58,5-13.48Z"/><polygon class="cls-4" points="6.99 18.26 11.44 7.81 27.58 6.73 23.12 18.8 6.99 18.26"/><path class="cls-1" d="M26.6,7.47,22.66,18.11,8,17.62l3.9-9.17,14.71-1m2-1.47L11,7.17,6,18.89l17.58.59L28.56,6Z"/><text class="cls-5" transform="translate(36.86 17.14)">W<tspan class="cls-6" x="9.76" y="0">ebadmin</tspan></text><text class="cls-7" transform="translate(37.43 22.7)"><tspan class="cls-8">T</tspan><tspan x="1.54" y="0">ecxha </tspan><tspan class="cls-9" x="11.19" y="0">I</tspan><tspan x="12.11" y="0">t </tspan><tspan class="cls-10" x="14.08" y="0">S</tspan><tspan x="15.88" y="0">olutions</tspan></text></g></g></svg>